<?xml version="1.0" standalone="no"?>
<!DOCTYPE svg PUBLIC "-//W3C//DTD SVG 20010904//EN"
 "http://www.w3.org/TR/2001/REC-SVG-20010904/DTD/svg10.dtd">
<svg version="1.0" xmlns="http://www.w3.org/2000/svg"
 width="400.000000pt" height="400.000000pt" viewBox="0 0 400.000000 400.000000"
 preserveAspectRatio="xMidYMid meet">
<metadata>
Created by potrace 1.11, written by Peter Selinger 2001-2013
</metadata>
<g transform="translate(0.000000,400.000000) scale(0.100000,-0.100000)"
fill="#000000" stroke="none">
<path d="M200 2996 c0 -8 16 -16 39 -20 96 -15 115 -49 378 -661 114 -265 116
-268 141 -325 11 -25 32 -74 46 -110 15 -36 35 -83 45 -105 10 -22 71 -164
136 -315 64 -151 126 -296 137 -321 11 -26 55 -127 97 -225 l77 -179 58 0 c42
0 61 4 67 15 5 8 43 112 85 230 42 118 94 265 116 325 21 61 41 117 43 125 8
31 254 709 262 724 6 11 38 -55 112 -227 57 -133 114 -264 127 -292 12 -27 34
-79 49 -115 15 -36 35 -83 45 -105 10 -22 37 -85 60 -140 23 -55 52 -122 65
-150 12 -27 55 -127 95 -222 l73 -172 61 2 60 2 34 95 c19 52 56 156 82 230
26 74 105 295 175 490 71 195 143 398 161 450 110 322 176 476 282 656 106
182 238 303 348 320 28 4 44 11 44 20 0 12 -75 14 -460 14 -402 0 -460 -2
-460 -15 0 -9 9 -15 23 -16 124 -4 229 -91 287 -239 27 -68 35 -128 34 -250 0
-114 6 -94 -138 -495 -26 -71 -48 -134 -50 -140 -2 -5 -6 -17 -9 -25 -4 -8
-31 -84 -60 -168 -58 -168 -57 -167 -97 -72 -12 30 -36 83 -51 118 -16 34 -29
65 -29 67 0 2 -11 28 -24 57 -13 29 -54 123 -91 208 -37 85 -76 173 -86 195
-152 341 -195 450 -213 538 -24 112 -2 182 62 202 18 5 32 15 32 22 0 20
-1006 19 -1013 -1 -4 -10 7 -16 39 -21 86 -12 121 -68 279 -435 53 -124 105
-244 115 -267 11 -24 20 -47 20 -52 0 -10 -196 -568 -233 -660 l-21 -55 -29
65 c-16 35 -67 152 -114 259 -93 213 -110 251 -143 325 -82 181 -206 469 -222
515 -27 77 -29 86 -34 165 -6 84 16 132 66 142 17 3 30 12 30 19 0 12 -83 14
-505 14 -421 0 -505 -2 -505 -14z"/>
</g>
</svg>
