<?xml version="1.0" standalone="no"?>
<!DOCTYPE svg PUBLIC "-//W3C//DTD SVG 20010904//EN"
 "http://www.w3.org/TR/2001/REC-SVG-20010904/DTD/svg10.dtd">
<svg version="1.0" xmlns="http://www.w3.org/2000/svg"
 width="400.000000pt" height="400.000000pt" viewBox="0 0 400.000000 400.000000"
 preserveAspectRatio="xMidYMid meet">
<metadata>
Created by potrace 1.11, written by Peter Selinger 2001-2013
</metadata>
<g transform="translate(0.000000,400.000000) scale(0.100000,-0.100000)"
fill="#000000" stroke="none">
<path d="M1360 2585 c-25 -6 -72 -30 -105 -52 -83 -56 -150 -88 -269 -130
-191 -66 -718 -293 -749 -322 -24 -23 -29 -58 -12 -91 31 -60 69 -53 280 50
88 43 209 101 269 129 113 53 335 136 342 128 3 -2 -41 -60 -96 -128 -264
-324 -301 -373 -336 -444 -30 -61 -37 -86 -38 -138 -1 -56 3 -69 28 -102 104
-135 364 -93 660 107 156 105 279 190 346 239 35 27 66 46 68 44 2 -1 5 -27 8
-57 8 -99 44 -198 87 -239 72 -69 247 -75 387 -11 53 24 196 124 280 196 l75
64 43 -25 c65 -39 157 -53 312 -48 74 2 146 6 160 8 99 19 189 41 261 63 46
14 129 38 184 53 168 46 250 96 240 146 -2 11 -4 25 -4 32 -2 20 -43 53 -68
53 -13 0 -43 -10 -66 -21 -67 -35 -234 -94 -342 -122 -93 -24 -120 -29 -207
-42 -222 -30 -331 -27 -383 11 -18 14 -16 17 51 87 166 170 289 328 300 382 4
25 1 40 -13 58 -52 70 -134 89 -238 55 -68 -22 -108 -50 -182 -125 -115 -117
-155 -203 -156 -337 l-1 -89 -95 -62 c-175 -114 -247 -143 -354 -141 -108 2
-127 33 -118 201 1 24 14 41 69 85 133 109 220 212 226 268 5 40 -12 79 -47
108 -28 23 -37 26 -85 21 -95 -10 -188 -102 -273 -271 -44 -88 -239 -260 -413
-365 -155 -94 -314 -152 -449 -166 l-66 -7 8 29 c13 45 38 89 123 216 91 136
251 308 398 427 52 42 101 85 109 94 8 10 16 41 19 70 4 48 1 57 -24 85 -34
37 -74 44 -144 26z"/>
</g>
</svg>
